{"title":"Aa Gaye Munde U.K. De ( 2014) Panjabi  720p - HDRip - HEVC 265 A","uid":11356954,"size":819851534,"categoryP":"video","categoryS":"movies","magnet":"?xt=urn:btih:757a7edcf4381588191345e61589dda80fa60d93&amp;dn=Aa+Gaye+Munde+U.K.+De+%28+2014%29+Panjabi++720p+-+HDRip+-+HEVC+265+A&amp;tr=udp%3A%2F%2Ftracker.openbittorrent.com%3A80&amp;tr=udp%3A%2F%2Fopen.demonii.com%3A1337&amp;tr=udp%3A%2F%2Ftracker.coppersurfer.tk%3A6969&amp;tr=udp%3A%2F%2Fexodus.desync.com%3A6969","seeders":4,"leechers":0,"uploader":"rsy007","files":5,"time":1414957825,"description":"[img]http://s25.postimg.org/v59nc5sgv/Dvd_Poter.jpg[/img]\n\nComplete name                            : Aa Gaye Munde U.K. De ( 2014) Panjabi  720p - HDRip - HEVC 265 AC3 5.1 [TG]\nFormat                                   : Matroska\nFormat version                           : Version 4 / Version 2\nFile size                                : 782 MiB\nDuration                                 : 2h 12mn\nOverall bit rate                         : 826 Kbps\nMovie name                               : RSY 007 TG\nEncoded date                             : UTC 2014-11-02 16:21:47\nWriting application                      : mkvmerge v7.1.0 ('Good Love') 32bit built on Jul 27 2014 12:59:18\nWriting library                          : libebml v1.3.0 + libmatroska v1.4.1\nDURATION                                 : 02:12:24.000000000\n\n\n\n[img]http://s25.postimg.org/nrmb39uxr/HEVC.jpg[/img]\n\nVideo\nID                                       : 1\nFormat                                   : HEVC\nFormat/Info                              : High Efficiency Video Coding\nCodec ID                                 : V_MPEGH/ISO/HEVC\nDuration                                 : 2h 12mn\nBit rate                                 : 585 Kbps\nWidth                                    : 1 280 pixels\nHeight                                   : 544 pixels\nDisplay aspect ratio                     : 2.35:1\nFrame rate mode                          : Constant\nFrame rate                               : 24.000 fps\nBits/(Pixel*Frame)                       : 0.035\nStream size                              : 554 MiB (71%)\nTitle                                    : RSY 007 TG\nLanguage                                 : Panjabi\nDefault                                  : Yes\nForced                                   : No\n\nAudio\nID                                       : 2\nFormat                                   : AC-3\nFormat/Info                              : Audio Coding 3\nMode extension                           : CM (complete main)\nFormat settings, Endianness              : Big\nCodec ID                                 : A_AC3\nDuration                                 : 2h 12mn\nBit rate mode                            : Constant\nBit rate                                 : 224 Kbps\nChannel(s)                               : 6 channels\nChannel positions                        : Front: L C R, Side: L R, LFE\nSampling rate                            : 48.0 KHz\nBit depth                                : 16 bits\nCompression mode                         : Lossy\nStream size                              : 212 MiB (27%)\nTitle                                    : RSY 007 TG\nLanguage                                 : Panjabi\nDefault                                  : Yes\nForced                                   : No\n\n\n\nScreen Shot\n\n[img]http://s25.postimg.org/uh0st7tr3/image.jpg[/img]\n\n\n\n[img]http://s25.postimg.org/y4fjlgf33/image.gif[/img]\n\n\n[img]http://s25.postimg.org/c7t0l31wf/LRrsf_Znw85.gif[/img]\n\n[color=red][b]Seedbox seeding 24x7 @ 1Gbps [/b][/color]\n\n[url=https://www.ultraseedbox.com/aff.php?aff=270] [img]http://i.imgur.com/A4if5TP.png[/img] [/url]\n\n[IMG]http://i.imgur.com/VkQzViC.png[/IMG][/url]\n\n[color=red][b]Note : Please try to seed as much as you can since &quot;sharing brings joy&quot; ! [/b][/color]","torrent":{"xt":"urn:btih:757a7edcf4381588191345e61589dda80fa60d93","amp;dn":"Aa+Gaye+Munde+U.K.+De+%28+2014%29+Panjabi++720p+-+HDRip+-+HEVC+265+A","amp;tr":["udp%3A%2F%2Ftracker.openbittorrent.com%3A80","udp%3A%2F%2Fopen.demonii.com%3A1337","udp%3A%2F%2Ftracker.coppersurfer.tk%3A6969","udp%3A%2F%2Fexodus.desync.com%3A6969"],"infoHash":"757a7edcf4381588191345e61589dda80fa60d93","infoHashBuffer":{"type":"Buffer","data":[117,122,126,220,244,56,21,136,25,19,69,230,21,137,221,168,15,166,13,147]},"announce":[],"urlList":[]}}